<mxfile host="app.diagrams.net" modified="2024-06-19T07:45:42.379Z" agent="Mozilla/5.0 (Windows NT 10.0; Win64; x64) AppleWebKit/537.36 (KHTML, like Gecko) Chrome/126.0.0.0 Safari/537.36" etag="U2j-GbyUSTcT3w1dgpKN" version="24.4.7" type="device">
  <diagram name="Page-1" id="QXF5h233MNWtugkCn3wC">
    <mxGraphModel dx="1032" dy="539" grid="1" gridSize="10" guides="1" tooltips="1" connect="1" arrows="1" fold="1" page="1" pageScale="1" pageWidth="850" pageHeight="1100" math="0" shadow="0">
      <root>
        <mxCell id="0" />
        <mxCell id="1" parent="0" />
        <mxCell id="DZkMA1Fg16nb2DPyYADL-1" value="User" style="sketch=0;outlineConnect=0;fontColor=#232F3E;gradientColor=none;strokeColor=#232F3E;fillColor=#ffffff;dashed=0;verticalLabelPosition=bottom;verticalAlign=top;align=center;html=1;fontSize=12;fontStyle=0;aspect=fixed;shape=mxgraph.aws4.resourceIcon;resIcon=mxgraph.aws4.user;" parent="1" vertex="1">
          <mxGeometry x="395" y="10" width="60" height="60" as="geometry" />
        </mxCell>
        <mxCell id="DZkMA1Fg16nb2DPyYADL-2" value="" style="rounded=0;whiteSpace=wrap;html=1;" parent="1" vertex="1">
          <mxGeometry x="115" y="170" width="620" height="210" as="geometry" />
        </mxCell>
        <mxCell id="DZkMA1Fg16nb2DPyYADL-5" value="" style="sketch=0;pointerEvents=1;shadow=0;dashed=0;html=1;strokeColor=none;fillColor=#505050;labelPosition=center;verticalLabelPosition=bottom;verticalAlign=top;outlineConnect=0;align=center;shape=mxgraph.office.concepts.application_android;" parent="1" vertex="1">
          <mxGeometry x="125" y="180" width="30" height="30" as="geometry" />
        </mxCell>
        <mxCell id="DZkMA1Fg16nb2DPyYADL-6" value="" style="shape=flexArrow;endArrow=classic;html=1;rounded=0;entryX=0.5;entryY=0;entryDx=0;entryDy=0;" parent="1" target="DZkMA1Fg16nb2DPyYADL-2" edge="1">
          <mxGeometry width="50" height="50" relative="1" as="geometry">
            <mxPoint x="425" y="100" as="sourcePoint" />
            <mxPoint x="450" y="190" as="targetPoint" />
          </mxGeometry>
        </mxCell>
        <mxCell id="DZkMA1Fg16nb2DPyYADL-7" value="AndroCom App" style="text;html=1;strokeColor=none;fillColor=none;align=center;verticalAlign=middle;whiteSpace=wrap;rounded=0;fontStyle=1" parent="1" vertex="1">
          <mxGeometry x="158" y="180" width="100" height="30" as="geometry" />
        </mxCell>
        <mxCell id="DZkMA1Fg16nb2DPyYADL-12" value="" style="sketch=0;pointerEvents=1;shadow=0;dashed=0;html=1;strokeColor=none;labelPosition=center;verticalLabelPosition=bottom;verticalAlign=top;align=center;fillColor=#505050;shape=mxgraph.mscae.intune.mobile_inventory" parent="1" vertex="1">
          <mxGeometry x="174" y="232.5" width="44" height="50" as="geometry" />
        </mxCell>
        <mxCell id="DZkMA1Fg16nb2DPyYADL-16" value="" style="sketch=0;outlineConnect=0;fontColor=#232F3E;gradientColor=none;fillColor=#232F3D;strokeColor=none;dashed=0;verticalLabelPosition=bottom;verticalAlign=top;align=center;html=1;fontSize=12;fontStyle=0;aspect=fixed;pointerEvents=1;shape=mxgraph.aws4.chat;" parent="1" vertex="1">
          <mxGeometry x="324" y="239.5" width="45.88" height="40" as="geometry" />
        </mxCell>
        <mxCell id="DZkMA1Fg16nb2DPyYADL-17" value="" style="shape=image;html=1;verticalAlign=top;verticalLabelPosition=bottom;labelBackgroundColor=#ffffff;imageAspect=0;aspect=fixed;image=https://cdn4.iconfinder.com/data/icons/ionicons/512/icon-ios7-telephone-outline-128.png" parent="1" vertex="1">
          <mxGeometry x="482" y="227.5" width="60" height="60" as="geometry" />
        </mxCell>
        <mxCell id="DZkMA1Fg16nb2DPyYADL-19" value="" style="sketch=0;pointerEvents=1;shadow=0;dashed=0;html=1;strokeColor=none;fillColor=#505050;labelPosition=center;verticalLabelPosition=bottom;verticalAlign=top;outlineConnect=0;align=center;shape=mxgraph.office.devices.video_camera;" parent="1" vertex="1">
          <mxGeometry x="624" y="245" width="52" height="25" as="geometry" />
        </mxCell>
        <mxCell id="DZkMA1Fg16nb2DPyYADL-20" value="Connection with AD HOC Network" style="text;html=1;strokeColor=none;fillColor=none;align=center;verticalAlign=middle;whiteSpace=wrap;rounded=0;" parent="1" vertex="1">
          <mxGeometry x="159" y="310" width="74" height="30" as="geometry" />
        </mxCell>
        <mxCell id="DZkMA1Fg16nb2DPyYADL-21" value="Sending &amp;amp; Receiving Text Messages" style="text;html=1;strokeColor=none;fillColor=none;align=center;verticalAlign=middle;whiteSpace=wrap;rounded=0;" parent="1" vertex="1">
          <mxGeometry x="306.91" y="310" width="80.06" height="30" as="geometry" />
        </mxCell>
        <mxCell id="DZkMA1Fg16nb2DPyYADL-22" value="Making &amp;amp; Receiving Voice Calls" style="text;html=1;strokeColor=none;fillColor=none;align=center;verticalAlign=middle;whiteSpace=wrap;rounded=0;" parent="1" vertex="1">
          <mxGeometry x="475" y="310" width="74" height="30" as="geometry" />
        </mxCell>
        <mxCell id="DZkMA1Fg16nb2DPyYADL-23" value="Making &amp;amp; Receiving Video Calls" style="text;html=1;strokeColor=none;fillColor=none;align=center;verticalAlign=middle;whiteSpace=wrap;rounded=0;" parent="1" vertex="1">
          <mxGeometry x="613" y="310" width="74" height="30" as="geometry" />
        </mxCell>
        <mxCell id="DZkMA1Fg16nb2DPyYADL-24" value="" style="shape=flexArrow;endArrow=classic;html=1;rounded=0;entryX=0.5;entryY=0;entryDx=0;entryDy=0;" parent="1" edge="1">
          <mxGeometry width="50" height="50" relative="1" as="geometry">
            <mxPoint x="424" y="400" as="sourcePoint" />
            <mxPoint x="424" y="470" as="targetPoint" />
          </mxGeometry>
        </mxCell>
        <mxCell id="DZkMA1Fg16nb2DPyYADL-27" value="" style="verticalLabelPosition=bottom;verticalAlign=top;html=1;shape=mxgraph.basic.patternFillRect;fillStyle=diag;step=5;fillStrokeWidth=0.2;fillStrokeColor=#dddddd;fillColor=#DEDEDE;" parent="1" vertex="1">
          <mxGeometry x="115" y="470" width="620" height="250" as="geometry" />
        </mxCell>
        <mxCell id="DZkMA1Fg16nb2DPyYADL-28" value="" style="points=[[0.005,0.09,0],[0.08,0,0],[0.76,0.25,0],[1,0.92,0],[0.91,0.995,0],[0.57,0.995,0],[0.045,0.955,0],[0.005,0.43,0]];verticalLabelPosition=bottom;sketch=0;html=1;verticalAlign=top;aspect=fixed;align=center;pointerEvents=1;shape=mxgraph.cisco19.3g_4g_indicator;fillColor=#3B3B3B;strokeColor=none;" parent="1" vertex="1">
          <mxGeometry x="125" y="480" width="24" height="24" as="geometry" />
        </mxCell>
        <mxCell id="DZkMA1Fg16nb2DPyYADL-29" value="AD HOC Network" style="text;html=1;strokeColor=none;fillColor=none;align=center;verticalAlign=middle;whiteSpace=wrap;rounded=0;fontStyle=1" parent="1" vertex="1">
          <mxGeometry x="159" y="477" width="100" height="30" as="geometry" />
        </mxCell>
        <mxCell id="DZkMA1Fg16nb2DPyYADL-30" value="" style="rounded=1;whiteSpace=wrap;html=1;" parent="1" vertex="1">
          <mxGeometry x="148" y="530" width="552" height="160" as="geometry" />
        </mxCell>
        <mxCell id="DZkMA1Fg16nb2DPyYADL-31" value="" style="sketch=0;pointerEvents=1;shadow=0;dashed=0;html=1;strokeColor=none;fillColor=#434445;aspect=fixed;labelPosition=center;verticalLabelPosition=bottom;verticalAlign=top;align=center;outlineConnect=0;shape=mxgraph.vvd.cpu;" parent="1" vertex="1">
          <mxGeometry x="160" y="540" width="30" height="30" as="geometry" />
        </mxCell>
        <mxCell id="DZkMA1Fg16nb2DPyYADL-32" value="Raspberry Pi 3B+" style="text;html=1;strokeColor=none;fillColor=none;align=center;verticalAlign=middle;whiteSpace=wrap;rounded=0;fontStyle=1" parent="1" vertex="1">
          <mxGeometry x="193" y="540" width="107" height="30" as="geometry" />
        </mxCell>
        <UserObject label="Managing the AD HOC Network" treeRoot="1" id="DZkMA1Fg16nb2DPyYADL-42">
          <mxCell style="whiteSpace=wrap;html=1;align=center;treeFolding=1;treeMoving=1;newEdgeStyle={&quot;edgeStyle&quot;:&quot;elbowEdgeStyle&quot;,&quot;startArrow&quot;:&quot;none&quot;,&quot;endArrow&quot;:&quot;none&quot;};" parent="1" vertex="1">
            <mxGeometry x="204" y="595" width="120" height="60" as="geometry" />
          </mxCell>
        </UserObject>
        <UserObject label="Relaying Messages between Clients" treeRoot="1" id="DZkMA1Fg16nb2DPyYADL-43">
          <mxCell style="whiteSpace=wrap;html=1;align=center;treeFolding=1;treeMoving=1;newEdgeStyle={&quot;edgeStyle&quot;:&quot;elbowEdgeStyle&quot;,&quot;startArrow&quot;:&quot;none&quot;,&quot;endArrow&quot;:&quot;none&quot;};" parent="1" vertex="1">
            <mxGeometry x="365" y="595" width="120" height="60" as="geometry" />
          </mxCell>
        </UserObject>
        <UserObject label="Facilitating with Voice &amp;amp; Video Calls&amp;nbsp;" treeRoot="1" id="DZkMA1Fg16nb2DPyYADL-44">
          <mxCell style="whiteSpace=wrap;html=1;align=center;treeFolding=1;treeMoving=1;newEdgeStyle={&quot;edgeStyle&quot;:&quot;elbowEdgeStyle&quot;,&quot;startArrow&quot;:&quot;none&quot;,&quot;endArrow&quot;:&quot;none&quot;};" parent="1" vertex="1">
            <mxGeometry x="530" y="595" width="120" height="60" as="geometry" />
          </mxCell>
        </UserObject>
      </root>
    </mxGraphModel>
  </diagram>
</mxfile>
